<?xml version="1.0" encoding="UTF-8" standalone="no"?>
<svg width="18px" height="18px" viewBox="0 0 18 18" version="1.1" xmlns="http://www.w3.org/2000/svg" xmlns:xlink="http://www.w3.org/1999/xlink">
    <!-- Generator: Sketch 41 (35326) - http://www.bohemiancoding.com/sketch -->
    <title>checkmark</title>
    <desc>Created with Sketch.</desc>
    <defs></defs>
    <g id="All" stroke="none" stroke-width="1" fill="none" fill-rule="evenodd">
        <g id="checkmark" fill="#000000">
            <path d="M9.23444348,13.5684345 L7.83096771,14.9719103 C7.64455655,15.1583214 7.38727833,15.2600002 7.12845953,15.2600002 C6.87118131,15.2600002 6.61236251,15.1583214 6.42749193,14.9719103 L5.02401616,13.5684345 L1.28808998,9.8325083 C1.1032194,9.64609713 1,9.38881892 1,9.1315407 C1,8.8727219 1.1032194,8.6139031 1.28808998,8.42903252 L2.69156575,7.02555675 C2.87643633,6.837605 3.13525513,6.73592618 3.39253334,6.73592618 C3.65135215,6.73592618 3.90863036,6.837605 4.09504153,7.02555675 L7.12845953,10.0697589 L13.8993443,3.28963057 C14.0857555,3.10475999 14.3430337,3 14.6018525,3 C14.8591307,3 15.1179495,3.10475999 15.3028201,3.28963057 L16.7062958,4.69310634 C16.8911664,4.8795175 16.9943858,5.13679572 16.9943858,5.39407393 C16.9943858,5.65289274 16.8911664,5.91171154 16.7062958,6.09658211 L9.23444348,13.5684345 Z" id="Fill-1"></path>
        </g>
    </g>
</svg>