<?xml version="1.0" encoding="UTF-8" standalone="no"?>
<svg
   xmlns:dc="http://purl.org/dc/elements/1.1/"
   xmlns:cc="http://creativecommons.org/ns#"
   xmlns:rdf="http://www.w3.org/1999/02/22-rdf-syntax-ns#"
   xmlns:svg="http://www.w3.org/2000/svg"
   xmlns="http://www.w3.org/2000/svg"
   id="svg4591"
   version="1.1"
   viewBox="0 0 25.180811 28.513021"
   height="28.513021mm"
   width="25.180811mm">
  <defs
     id="defs4585" />
  <metadata
     id="metadata4588">
    <rdf:RDF>
      <cc:Work
         rdf:about="">
        <dc:format>image/svg+xml</dc:format>
        <dc:type
           rdf:resource="http://purl.org/dc/dcmitype/StillImage" />
        <dc:title></dc:title>
      </cc:Work>
    </rdf:RDF>
  </metadata>
  <g
     transform="translate(-42.211008,-115.91262)"
     id="layer1">
    <g
       transform="matrix(0.06311961,0,0,0.06311961,38.071813,113.02622)"
       id="g4553">
      <g
         id="Layer_2">
        <path
           style="fill:#b1b4b5"
           d="m 376.749,349.097 c -13.531,0 -24.5,-10.969 -24.5,-24.5 V 181.932 c 0,-48.083 -39.119,-87.203 -87.203,-87.203 -48.083,0 -87.203,39.119 -87.203,87.203 v 82.977 c 0,13.531 -10.969,24.5 -24.5,24.5 -13.531,0 -24.5,-10.969 -24.5,-24.5 v -82.977 c 0,-75.103 61.1,-136.203 136.203,-136.203 75.103,0 136.203,61.1 136.203,136.203 v 142.665 c 0,13.531 -10.969,24.5 -24.5,24.5 z"
           id="path4530" />
      </g>
      <g
         id="Layer_3">
        <path
           style="fill:#ffb636"
           d="M 414.115,497.459 H 115.977 c -27.835,0 -50.4,-22.565 -50.4,-50.4 V 274.691 c 0,-27.835 22.565,-50.4 50.4,-50.4 h 298.138 c 27.835,0 50.4,22.565 50.4,50.4 v 172.367 c 0,27.836 -22.565,50.401 -50.4,50.401 z"
           id="path4533" />
      </g>
    </g>
  </g>
</svg>
